HIERARCHY
ROOT Hips
{
    OFFSET   0.000000   0.000000   0.000000
    CHANNELS 6 Xposition Yposition Zposition Zrotation Xrotation Yrotation
    JOINT Chest
    {
        OFFSET   0.000000   8.007230   0.000000
        CHANNELS 3 Zrotation Xrotation Yrotation
        JOINT Chest2
        {
            OFFSET   0.000000  22.077100   0.000000
            CHANNELS 3 Zrotation Xrotation Yrotation
            JOINT Neck
            {
                OFFSET   0.000000  23.255100   0.000000
                CHANNELS 3 Zrotation Xrotation Yrotation
                JOINT Head
                {
                    OFFSET   0.000000  14.370100   1.956600
                    CHANNELS 3 Zrotation Xrotation Yrotation
                    End Site
                    {
                        OFFSET   0.000000  19.566000   0.000000
                    }
                }
            }
            JOINT LeftCollar
            {
                OFFSET   3.911900  19.017000  -0.467063
                CHANNELS 3 Zrotation Xrotation Yrotation
                JOINT LeftShoulder
                {
                    OFFSET  10.383700   0.000000   0.000000
                    CHANNELS 3 Zrotation Xrotation Yrotation
                    JOINT LeftElbow
                    {
                        OFFSET  26.662100   0.001193   0.000980
                        CHANNELS 3 Zrotation Xrotation Yrotation
                        JOINT LeftWrist
                        {
                            OFFSET  28.869000  -0.000059  -0.000082
                            CHANNELS 3 Zrotation Xrotation Yrotation
                            JOINT LeftFinger0
                            {
                                OFFSET   2.044650  -2.323450   3.252850
                                CHANNELS 3 Zrotation Xrotation Yrotation
                                JOINT LeftFinger01
                                {
                                    OFFSET   3.088130   0.000000   0.000000
                                    CHANNELS 3 Zrotation Xrotation Yrotation
                                    JOINT LeftFinger02
                                    {
                                        OFFSET   2.639460   0.000000   0.000000
                                        CHANNELS 3 Zrotation Xrotation Yrotation
                                        End Site
                                        {
                                            OFFSET   2.582190   0.000000   0.000000
                                        }
                                    }
                                }
                            }
                            JOINT LeftFinger1
                            {
                                OFFSET   8.364480   0.000000   3.252850
                                CHANNELS 3 Zrotation Xrotation Yrotation
                                JOINT LeftFinger11
                                {
                                    OFFSET   4.646930   0.000000   0.000000
                                    CHANNELS 3 Zrotation Xrotation Yrotation
                                    JOINT LeftFinger12
                                    {
                                        OFFSET   2.323470   0.000000   0.000000
                                        CHANNELS 3 Zrotation Xrotation Yrotation
                                        End Site
                                        {
                                            OFFSET   2.273050   0.000000   0.000000
                                        }
                                    }
                                }
                            }
                            JOINT LeftFinger2
                            {
                                OFFSET   8.364490   0.000016   1.078090
                                CHANNELS 3 Zrotation Xrotation Yrotation
                                JOINT LeftFinger21
                                {
                                    OFFSET   5.111610   0.000000   0.000000
                                    CHANNELS 3 Zrotation Xrotation Yrotation
                                    JOINT LeftFinger22
                                    {
                                        OFFSET   2.788150   0.000016   0.000000
                                        CHANNELS 3 Zrotation Xrotation Yrotation
                                        End Site
                                        {
                                            OFFSET   2.727660   0.000000   0.000000
                                        }
                                    }
                                }
                            }
                            JOINT LeftFinger3
                            {
                                OFFSET   7.899780   0.000015  -1.078090
                                CHANNELS 3 Zrotation Xrotation Yrotation
                                JOINT LeftFinger31
                                {
                                    OFFSET   4.646930   0.000000   0.000000
                                    CHANNELS 3 Zrotation Xrotation Yrotation
                                    JOINT LeftFinger32
                                    {
                                        OFFSET   2.323470   0.000000   0.000000
                                        CHANNELS 3 Zrotation Xrotation Yrotation
                                        End Site
                                        {
                                            OFFSET   2.273050   0.000000   0.000000
                                        }
                                    }
                                }
                            }
                            JOINT LeftFinger4
                            {
                                OFFSET   7.435090   0.000000  -3.252850
                                CHANNELS 3 Zrotation Xrotation Yrotation
                                JOINT LeftFinger41
                                {
                                    OFFSET   3.717550   0.000000   0.000000
                                    CHANNELS 3 Zrotation Xrotation Yrotation
                                    JOINT LeftFinger42
                                    {
                                        OFFSET   1.858770   0.000000   0.000000
                                        CHANNELS 3 Zrotation Xrotation Yrotation
                                        End Site
                                        {
                                            OFFSET   1.818440   0.000000   0.000000
                                        }
                                    }
                                }
                            }
                        }
                    }
                }
            }
            JOINT RightCollar
            {
                OFFSET  -3.911910  19.017000  -0.467062
                CHANNELS 3 Zrotation Xrotation Yrotation
                JOINT RightShoulder
                {
                    OFFSET -10.383700   0.000014   0.000000
                    CHANNELS 3 Zrotation Xrotation Yrotation
                    JOINT RightElbow
                    {
                        OFFSET -26.662100   0.001225   0.001091
                        CHANNELS 3 Zrotation Xrotation Yrotation
                        JOINT RightWrist
                        {
                            OFFSET -28.869000  -0.000020  -0.000085
                            CHANNELS 3 Zrotation Xrotation Yrotation
                            JOINT RightFinger0
                            {
                                OFFSET  -2.044650  -2.323490   3.252850
                                CHANNELS 3 Zrotation Xrotation Yrotation
                                JOINT RightFinger01
                                {
                                    OFFSET  -3.088130   0.000000   0.000000
                                    CHANNELS 3 Zrotation Xrotation Yrotation
                                    JOINT RightFinger02
                                    {
                                        OFFSET  -2.639460   0.000000   0.000000
                                        CHANNELS 3 Zrotation Xrotation Yrotation
                                        End Site
                                        {
                                            OFFSET  -2.582190   0.000000   0.000000
                                        }
                                    }
                                }
                            }
                            JOINT RightFinger1
                            {
                                OFFSET  -8.364480   0.000000   3.252850
                                CHANNELS 3 Zrotation Xrotation Yrotation
                                JOINT RightFinger11
                                {
                                    OFFSET  -4.646930   0.000000   0.000000
                                    CHANNELS 3 Zrotation Xrotation Yrotation
                                    JOINT RightFinger12
                                    {
                                        OFFSET  -2.323470   0.000000   0.000000
                                        CHANNELS 3 Zrotation Xrotation Yrotation
                                        End Site
                                        {
                                            OFFSET  -2.273050   0.000000   0.000000
                                        }
                                    }
                                }
                            }
                            JOINT RightFinger2
                            {
                                OFFSET  -8.364480   0.000000   1.078090
                                CHANNELS 3 Zrotation Xrotation Yrotation
                                JOINT RightFinger21
                                {
                                    OFFSET  -5.111620   0.000000   0.000000
                                    CHANNELS 3 Zrotation Xrotation Yrotation
                                    JOINT RightFinger22
                                    {
                                        OFFSET  -2.788160   0.000000   0.000000
                                        CHANNELS 3 Zrotation Xrotation Yrotation
                                        End Site
                                        {
                                            OFFSET  -2.727660   0.000000   0.000000
                                        }
                                    }
                                }
                            }
                            JOINT RightFinger3
                            {
                                OFFSET  -7.899780   0.000000  -1.078090
                                CHANNELS 3 Zrotation Xrotation Yrotation
                                JOINT RightFinger31
                                {
                                    OFFSET  -4.646930   0.000000   0.000000
                                    CHANNELS 3 Zrotation Xrotation Yrotation
                                    JOINT RightFinger32
                                    {
                                        OFFSET  -2.323470   0.000000   0.000000
                                        CHANNELS 3 Zrotation Xrotation Yrotation
                                        End Site
                                        {
                                            OFFSET  -2.273050   0.000000   0.000000
                                        }
                                    }
                                }
                            }
                            JOINT RightFinger4
                            {
                                OFFSET  -7.435090   0.000000  -3.252850
                                CHANNELS 3 Zrotation Xrotation Yrotation
                                JOINT RightFinger41
                                {
                                    OFFSET  -3.717550   0.000000   0.000000
                                    CHANNELS 3 Zrotation Xrotation Yrotation
                                    JOINT RightFinger42
                                    {
                                        OFFSET  -1.858760   0.000000   0.000000
                                        CHANNELS 3 Zrotation Xrotation Yrotation
                                        End Site
                                        {
                                            OFFSET  -1.818440   0.000000   0.000000
                                        }
                                    }
                                }
                            }
                        }
                    }
                }
            }
        }
    }
    JOINT LeftHip
    {
        OFFSET   9.783030   0.000000   0.000000
        CHANNELS 3 Zrotation Xrotation Yrotation
        JOINT LeftKnee
        {
            OFFSET   0.000063 -41.789100   0.000608
            CHANNELS 3 Zrotation Xrotation Yrotation
            JOINT LeftAnkle
            {
                OFFSET   0.000048 -41.133200  -0.000184
                CHANNELS 3 Zrotation Xrotation Yrotation
                JOINT LeftToe
                {
                    OFFSET   0.000000  -6.358960  14.674500
                    CHANNELS 3 Zrotation Xrotation Yrotation
                    End Site
                    {
                        OFFSET   0.000000   0.000000   3.913200
                    }
                }
            }
        }
    }
    JOINT RightHip
    {
        OFFSET  -9.783030   0.000000   0.000000
        CHANNELS 3 Zrotation Xrotation Yrotation
        JOINT RightKnee
        {
            OFFSET   0.000071 -41.789100   0.001239
            CHANNELS 3 Zrotation Xrotation Yrotation
            JOINT RightAnkle
            {
                OFFSET   0.000037 -41.133200  -0.000166
                CHANNELS 3 Zrotation Xrotation Yrotation
                JOINT RightToe
                {
                    OFFSET   0.000000  -6.358960  14.674500
                    CHANNELS 3 Zrotation Xrotation Yrotation
                    End Site
                    {
                        OFFSET   0.000000   0.000000   3.913200
                    }
                }
            }
        }
    }
}
MOTION
Frames: 4
Frame Time:   0.016667
  0.158352  89.496400   1.147420  -1.235420  -1.433190   0.928998   1.017650   2.126000  -0.921938   2.071550   4.234990  -1.883470  -2.270330   0.618696   0.032916  -3.735060   1.247900   4.441860  -5.391290   1.391590  10.742100 -78.627700   6.824020   1.204440  -0.190655   4.666180 -14.983300  13.703900  -3.785860   0.401171  39.012500  35.297100 -54.240700 -35.948500  -0.003351   0.007581 -13.330400  -0.004364   0.003315 -37.019000   0.725570  -0.962093 -30.292900  -0.009991  -0.001600 -21.205000  -0.003426   0.003775 -32.943700  -3.661740   5.623870 -49.683800  -0.000480  -0.003340 -33.090000  -0.009735  -0.003736 -28.336300  -4.891120   8.984850 -39.490600  -0.008216  -0.007745 -26.302800  -0.001590  -0.007143 -36.210700  -6.079890   8.230660 -54.974400  -0.009803  -0.008249 -36.612900   0.005190  -0.005885   6.419120   4.414900   8.349530  69.122600  -4.257780  -5.122120   3.464100  -3.450280  15.538000 -17.290300  -3.186280   0.931102 -39.061800  34.750700  67.189300  32.478300   0.002534  -0.001553  11.239700   0.001392  -0.006516  29.750000  -0.507956  -0.873153  24.344200   0.001973  -0.003660  17.047200  -0.002292  -0.002335  28.278500  -1.097910  -2.045150  34.194900   0.001008  -0.005685  22.773800  -0.004589  -0.011279  28.389200  -2.528250  -4.663890  36.210600  -0.001377  -0.003864  24.116300  -0.006471  -0.005713  34.179500  -2.985410  -4.385710  51.440900  -0.012010  -0.004267  34.259500  -0.003511  -0.006397   3.536520   3.346210  -0.324320   0.235073   0.372830  11.933500  -2.461100  -3.173530   2.180220  -0.000000   0.000000   0.000000  -1.384200   4.164860  -6.381330   1.121770   0.842812 -12.961300   0.189404  -2.886970   1.866510  -0.000000   0.000000   0.000000
  0.169849  89.496400   1.147570  -1.229880  -1.451840   0.951229   1.019930   2.143440  -0.919512   2.076340   4.269870  -1.879050  -2.275520   0.618510   0.032884  -3.741770   1.247540   4.441040  -5.402180   1.384810  10.742400 -78.617200   6.883730   1.186090  -0.192517   4.640010 -14.982800  13.704000  -3.787130   0.401335  39.005200  35.283000 -54.235100 -35.948800  -0.003349   0.007573 -13.330400  -0.004357   0.003319 -37.018700   0.733537  -0.972713 -30.292900  -0.009988  -0.001590 -21.205000  -0.003425   0.003783 -32.945600  -3.661730   5.623980 -49.687000  -0.000466  -0.003337 -33.091900  -0.009737  -0.003735 -28.338000  -4.885860   8.975010 -39.493800  -0.008205  -0.007736 -26.304100  -0.001590  -0.007134 -36.213000  -6.073350   8.221610 -54.975200  -0.009805  -0.008241 -36.613500   0.005187  -0.005879   6.436680   4.375660   8.384080  69.108100  -4.234070  -5.158060   3.465520  -3.468260  15.511000 -17.299100  -3.170740   0.919645 -39.044300  34.731400  67.168500  32.478300   0.002533  -0.001544  11.239400   0.001389  -0.006505  29.744500  -0.507694  -0.879281  24.339700   0.001969  -0.003659  17.047200  -0.002293  -0.002329  28.278500  -1.097910  -2.044520  34.185800   0.001005  -0.005677  22.767700  -0.004593  -0.011283  28.389300  -2.527650  -4.662780  36.206500  -0.001384  -0.003845  24.113600  -0.006476  -0.005714  34.180100  -2.984670  -4.384680  51.441700  -0.012008  -0.004261  34.260000  -0.003504  -0.006385   3.527500   3.365370  -0.334482   0.229497   0.364277  11.910800  -2.453730  -3.165120   2.190880   0.000000   0.000000   0.000000  -1.394490   4.181280  -6.370280   1.121620   0.845760 -12.963500   0.182181  -2.892940   1.823750   0.000000   0.000000   0.000000
  0.188627  89.496400   1.147710  -1.219900  -1.487130   0.991982   1.024990   2.175790  -0.911967   2.086790   4.334630  -1.864780  -2.284300   0.618314   0.032822  -3.753930   1.247180   4.435270  -5.425060   1.364980  10.742600 -78.599900   6.995240   1.155050  -0.197685   4.591080 -14.981700  13.704200  -3.791940   0.401501  38.991500  35.259900 -54.229400 -35.949200  -0.003334   0.007565 -13.330400  -0.004341   0.003323 -37.018300   0.745491  -0.988517 -30.292900  -0.009982  -0.001560 -21.205000  -0.003418   0.003806 -32.951000  -3.661710   5.624130 -49.695800  -0.000431  -0.003330 -33.097400  -0.009742  -0.003732 -28.340400  -4.878220   8.960640 -39.503400  -0.008176  -0.007710 -26.309300  -0.001589  -0.007110 -36.218100  -6.064200   8.208120 -54.980400  -0.009813  -0.008219 -36.617000   0.005179  -0.005863   6.474950   4.296040   8.451450  69.077200  -4.198040  -5.230510   3.468270  -3.510150  15.466600 -17.308300  -3.143390   0.902395 -39.030800  34.704500  67.154600  32.478300   0.002531  -0.001533  11.239200   0.001386  -0.006484  29.739000  -0.505863  -0.885407  24.335100   0.001962  -0.003656  17.047200  -0.002297  -0.002315  28.278600  -1.097910  -2.040100  34.176700   0.000995  -0.005657  22.761700  -0.004602  -0.011294  28.389800  -2.524730  -4.657260  36.202500  -0.001403  -0.003802  24.110900  -0.006488  -0.005716  34.183900  -2.981500  -4.379280  51.447000  -0.012004  -0.004246  34.263700  -0.003487  -0.006353   3.512230   3.401070  -0.351529   0.219776   0.350526  11.865900  -2.441180  -3.151890   2.211770   0.000000   0.000000   0.000000  -1.411770   4.212430  -6.350570   1.121940   0.853125 -12.970800   0.168943  -2.904910   1.749990   0.000000   0.000000  -0.000000
  0.203092  89.496300   1.147690  -1.210160  -1.524180   1.031490   1.031680   2.208840  -0.899449   2.100290   4.400850  -1.840630  -2.292060   0.618303   0.032766  -3.766570   1.247300   4.417990  -5.452710   1.329650  10.741700 -78.587300   7.107810   1.130550  -0.205247   4.540790 -14.983800  13.703900  -3.802240   0.401085  38.977700  35.240400 -54.231000 -35.949400  -0.003300   0.007565 -13.330400  -0.004316   0.003319 -37.026000   0.751345  -0.995951 -30.299300  -0.009975  -0.001513 -21.209600  -0.003407   0.003845 -32.960800  -3.661680   5.624200 -49.710500  -0.000378  -0.003319 -33.107200  -0.009751  -0.003726 -28.341300  -4.875600   8.955500 -39.520000  -0.008132  -0.007670 -26.320200  -0.001588  -0.007073 -36.226400  -6.061960   8.202620 -54.992500  -0.009825  -0.008183 -36.625100   0.005166  -0.005839   6.528540   4.199290   8.533220  69.027500  -4.185080  -5.326460   3.473780  -3.564920  15.435800 -17.307900  -3.131030   0.893004 -39.015000  34.697100  67.209500  32.484400   0.002535  -0.001529  11.243500   0.001390  -0.006467  29.750100  -0.497850  -0.872315  24.344100   0.001951  -0.003652  17.047200  -0.002306  -0.002291  28.279100  -1.092130  -2.027310  34.189600   0.000979  -0.005625  22.770200  -0.004616  -0.011312  28.391000  -2.517970  -4.644290  36.225200  -0.001433  -0.003738  24.126000  -0.006507  -0.005721  34.203400  -2.974840  -4.366140  51.475500  -0.011996  -0.004224  34.282800  -0.003463  -0.006305   3.499300   3.439300  -0.365347   0.210648   0.338271  11.816500  -2.429980  -3.141050   2.234690   0.000000   0.000000   0.000000  -1.426600   4.244290  -6.331720   1.124050   0.865844 -12.984400   0.155452  -2.919260   1.686190  -0.000000   0.000000   0.000000
